<svg width="500" height="513" viewBox="0 0 500 513" fill="none" xmlns="http://www.w3.org/2000/svg">
<circle cx="250" cy="263" r="250" fill="#DF9903"/>
<path d="M192.9 112.3L265.5 299.8C268.5 306.8 271.6 311.7 274.8 314.5C278.2 317.3 281.2 318.8 283.8 319V325C277.4 324.6 269.7 324.4 260.7 324.4C251.9 324.2 242.9 324.1 233.7 324.1C224.1 324.1 215 324.2 206.4 324.4C197.8 324.4 190.9 324.6 185.7 325V319C195.9 318.6 202.4 316.9 205.2 313.9C208 310.7 207.4 304 203.4 293.8L153.6 157.6L159.6 148.6L115.8 261.7C111.2 273.7 108.4 283.4 107.4 290.8C106.4 298.2 106.9 303.9 108.9 307.9C110.9 311.9 114 314.7 118.2 316.3C122.6 317.9 127.8 318.8 133.8 319V325C126.8 324.6 120.3 324.4 114.3 324.4C108.5 324.2 102.2 324.1 95.4 324.1C91.4 324.1 87.3 324.2 83.1 324.4C79.1 324.4 75.6 324.6 72.6 325V319C77 318.2 81.4 315.4 85.8 310.6C90.4 305.8 94.9 297.5 99.3 285.7L166.8 112.3C170.8 112.7 175.1 112.9 179.7 112.9C184.5 112.9 188.9 112.7 192.9 112.3ZM208.5 238.6V244.6H119.1L122.1 238.6H208.5Z" fill="#1D1D1E"/>
<path d="M318.5 183.4C331.7 183.4 342.5 185.4 350.9 189.4C359.5 193.2 367.1 197.7 373.7 202.9C377.7 205.9 380.7 206.3 382.7 204.1C384.9 201.7 386.4 196.2 387.2 187.6H394.1C393.7 195.4 393.4 205 393.2 216.4C393 227.8 392.9 242.8 392.9 261.4H386C385.2 252 383.9 243.8 382.1 236.8C380.5 229.8 378.1 223.6 374.9 218.2C371.7 212.8 367.1 208 361.1 203.8C356.5 200 351.3 197.1 345.5 195.1C339.9 192.9 334.1 191.8 328.1 191.8C317.1 191.8 307.8 194.9 300.2 201.1C292.8 207.1 286.8 215.1 282.2 225.1C277.8 234.9 274.6 245.9 272.6 258.1C270.8 270.1 269.9 282.2 269.9 294.4C269.9 306.8 270.9 319.1 272.9 331.3C274.9 343.3 278.1 354.2 282.5 364C287.1 373.8 293.2 381.7 300.8 387.7C308.4 393.5 317.7 396.4 328.7 396.4C334.5 396.4 340.2 395.4 345.8 393.4C351.6 391.4 356.8 388.5 361.4 384.7C370.2 378.7 376.1 370.9 379.1 361.3C382.3 351.5 384.6 338.8 386 323.2H392.9C392.9 342.6 393 358.3 393.2 370.3C393.4 382.1 393.7 392 394.1 400H387.2C386.4 391.4 385 386 383 383.8C381.2 381.6 378.1 381.9 373.7 384.7C366.3 389.9 358.4 394.5 350 398.5C341.8 402.3 331.2 404.2 318.2 404.2C296.4 404.2 277.2 399.9 260.6 391.3C244.2 382.7 231.4 370.3 222.2 354.1C213.2 337.9 208.7 318.4 208.7 295.6C208.7 273.2 213.4 253.6 222.8 236.8C232.2 220 245.1 206.9 261.5 197.5C278.1 188.1 297.1 183.4 318.5 183.4Z" fill="#1D1D1E"/>
</svg>
