<svg xmlns="http://www.w3.org/2000/svg" xmlns:svgjs="http://svgjs.com/svgjs" xmlns:xlink="http://www.w3.org/1999/xlink" width="288" height="288"><svg xmlns="http://www.w3.org/2000/svg" width="288" height="288" viewBox="0 0 25 25"><path fill="#fff" d="M16,11 L22,11 L22,10.7558211 L19.1654411,8 L16,8 L16,11 Z M16,12 L16,15.4997563 C16.4561144,14.8926715 17.1822005,14.5 18,14.5 C19.0251595,14.5 19.9061998,15.1170476 20.2919782,16 L22,16 L22,12 L16,12 Z M15,16 L15,7 L15,6 L3,6 L3,16 L3.70802184,16 C4.09380015,15.1170476 4.97484048,14.5 6,14.5 C7.02515952,14.5 7.90619985,15.1170476 8.29197816,16 L15,16 Z M16,7 L19.5714286,7 L23,10.3333333 L23,16 C23,16.5522847 22.5522847,17 22,17 L20.5,17 C20.5,18.3807119 19.3807119,19.5 18,19.5 C16.6192881,19.5 15.5,18.3807119 15.5,17 L8.5,17 C8.5,18.3807119 7.38071187,19.5 6,19.5 C4.61928813,19.5 3.5,18.3807119 3.5,17 L3,17 C2.44771525,17 2,16.5522847 2,16 L2,6 C2,5.44771525 2.44771525,5 3,5 L15,5 C15.5522847,5 16,5.44771525 16,6 L16,7 Z M6,18.5 C6.82842712,18.5 7.5,17.8284271 7.5,17 C7.5,16.1715729 6.82842712,15.5 6,15.5 C5.17157288,15.5 4.5,16.1715729 4.5,17 C4.5,17.8284271 5.17157288,18.5 6,18.5 Z M18,18.5 C18.8284271,18.5 19.5,17.8284271 19.5,17 C19.5,16.1715729 18.8284271,15.5 18,15.5 C17.1715729,15.5 16.5,16.1715729 16.5,17 C16.5,17.8284271 17.1715729,18.5 18,18.5 Z" class="color000 svgShape"/></svg></svg>